<svg xmlns="http://www.w3.org/2000/svg" xmlns:xlink="http://www.w3.org/1999/xlink" viewBox="0 0 130 130"><defs/><defs><radialGradient id="c" cx="158.429" cy="583.076" r="65" fx="158.429" fy="583.076" gradientTransform="rotate(-90 -8 844) scale(1.53846)" gradientUnits="userSpaceOnUse" xlink:href="#a"/><radialGradient id="d" cx="149.929" cy="453.076" r="65" fx="149.929" fy="453.076" gradientTransform="matrix(0 1 -1.38462 0 657 303)" gradientUnits="userSpaceOnUse" xlink:href="#b"/><linearGradient id="b"><stop offset="0" stop-color="#3771c8"/><stop offset="1" stop-color="#60f" stop-opacity="0"/></linearGradient><linearGradient id="a"><stop offset="0" stop-color="#fd5"/><stop offset=".1" stop-color="#fd5"/><stop offset=".5" stop-color="#f55"/><stop offset="1" stop-color="#c837ab"/></linearGradient></defs><g transform="translate(0 -453)"><rect class='fg' width="130" height="130" x="-.071" y="453.076" fill="url(#c)" ry="30"/><rect class='fg' width="130" height="130" x="-.071" y="453.076" fill="url(#d)" ry="30"/><path fill="#fff" d="M45 470c-16 0-28 13-28 28v40c0 16 12 28 28 28h40c15 0 28-12 28-28v-40c0-15-13-28-28-28H45zm-1 9h42c10 0 18 8 18 18v42c0 10-8 18-18 18H44c-10 0-18-8-18-18v-42c0-10 8-18 18-18zm46 8c-3 0-5 3-5 6a6 6 0 105-6zm-25 6a25 25 0 100 50 25 25 0 000-50zm0 9a16 16 0 110 32 16 16 0 010-32z"/></g></svg>
