<svg xmlns="http://www.w3.org/2000/svg" viewBox="0 0 16 16"><path fill="#000" class='fg' d="M13.16 9.21c-.22-.2-.69-.32-1.41-.33-.49 0-1.07.04-1.69.12a4.26 4.26 0 01-.78-.54 5.72 5.72 0 01-1.42-2.2l.05-.22s.34-1.92.25-2.57a.73.73 0 00-.04-.18l-.03-.08c-.1-.21-.27-.44-.56-.42l-.17-.01c-.31 0-.57.16-.64.4-.2.76.01 1.9.4 3.36l-.1.24c-.28.67-.62 1.34-.93 1.94l-.04.07c-.32.63-.6 1.16-.87 1.61l-.27.14-.6.33c-.92.55-1.53 1.18-1.64 1.68-.03.15 0 .36.16.45l.26.13a.8.8 0 00.36.09c.66 0 1.42-.82 2.48-2.66 1.22-.4 2.6-.73 3.82-.91.92.52 2.06.88 2.78.88.13 0 .24 0 .33-.03a.56.56 0 00.32-.22c.14-.21.17-.5.13-.8a.53.53 0 00-.15-.27zM3.3 12.72c.12-.33.6-.98 1.3-1.56a7 7 0 00.25-.23c-.74 1.18-1.23 1.64-1.55 1.79zm4.17-9.6c.2 0 .33.53.34 1.03s-.1.86-.25 1.12c-.12-.39-.18-1-.18-1.4 0 0-.01-.75.09-.75zM6.23 9.96l.46-.84c.38-.72.62-1.29.8-1.75a5.81 5.81 0 001.54 1.81c-1.07.21-1.99.47-2.8.78zm6.72-.06a.95.95 0 01-.37.06c-.38 0-.86-.17-1.53-.46l.7-.03c.4 0 .5 0 .88.1s.39.29.32.33z"/><path fill="#000" class='fg' d="M14.34 3.58A14.2 14.2 0 0011.42.66C10.62.06 10.22 0 10 0H2.25C1.56 0 1 .56 1 1.25v13.5c0 .69.56 1.25 1.25 1.25h11.5c.69 0 1.25-.56 1.25-1.25V5c0-.22-.07-.61-.66-1.42zm-2.07-.85c.48.48.86.91 1.14 1.27H11V1.6c.36.27.8.65 1.27 1.13zM14 14.75c0 .14-.11.25-.25.25H2.25a.25.25 0 01-.25-.25V1.25c0-.14.12-.25.25-.25H10v3.5c0 .28.22.5.5.5H14v9.75z"/></svg>
